<svg width="12" height="20" viewBox="0 0 12 20" fill="none" xmlns="http://www.w3.org/2000/svg">
<path d="M10.9992 0.00416134L8.40571 0C5.49197 0 3.60899 1.9319 3.60899 4.92203V7.19141H1.00131C0.775979 7.19141 0.593506 7.37409 0.593506 7.59943V10.8875C0.593506 11.1128 0.776187 11.2953 1.00131 11.2953H3.60899V19.5922C3.60899 19.8175 3.79146 20 4.01679 20H7.41907C7.6444 20 7.82687 19.8173 7.82687 19.5922V11.2953H10.8759C11.1012 11.2953 11.2837 11.1128 11.2837 10.8875L11.2849 7.59943C11.2849 7.49123 11.2418 7.38762 11.1655 7.31105C11.0891 7.23448 10.9851 7.19141 10.8769 7.19141H7.82687V5.26763C7.82687 4.34298 8.04721 3.87358 9.2517 3.87358L10.9988 3.87295C11.2239 3.87295 11.4064 3.69027 11.4064 3.46514V0.411972C11.4064 0.187052 11.2242 0.00457747 10.9992 0.00416134Z" fill="#222222"/>
</svg>