<svg width="164" height="15" viewBox="0 0 164 15" fill="none" xmlns="http://www.w3.org/2000/svg">
<path d="M6.76301 3.31083V14.2667H3.17919V3.31083H0V0H10V3.25063H6.76301V3.31083Z" fill="white"/>
<path d="M21.5 0C25.9688 0 27 2.78374 27 7.13333C27 11.4829 25.9688 14.2667 21.5 14.2667C17.0313 14.2667 16 11.4829 16 7.13333C16.0573 2.84173 17.0313 0 21.5 0ZM21.5 3.1897C20.0677 3.1897 19.6094 4.11762 19.6094 7.13333C19.6094 10.1491 20.0677 11.077 21.5 11.077C22.9323 11.077 23.3906 10.1491 23.3906 7.13333C23.3906 4.11762 22.9323 3.1897 21.5 3.1897Z" fill="white"/>
<path d="M40.5 0C44.9687 0 46 2.78374 46 7.13333C46 11.4829 44.9687 14.2667 40.5 14.2667C36.0312 14.2667 35 11.4829 35 7.13333C35.0573 2.84173 36.0312 0 40.5 0ZM40.5 3.1897C39.0677 3.1897 38.6094 4.11762 38.6094 7.13333C38.6094 10.1491 39.0677 11.077 40.5 11.077C41.9323 11.077 42.3906 10.1491 42.3906 7.13333C42.3906 4.11762 41.9323 3.1897 40.5 3.1897Z" fill="white"/>
<path d="M58.763 3.31083V14.2667H55.1792V3.31083H52V0H62V3.25063H58.763V3.31083Z" fill="white"/>
<path d="M76.5746 14.2667V8.58418H73.4254V14.2667H70V0H73.4254V5.31977H76.5746V0H80V14.2667H76.5746Z" fill="white"/>
<path d="M97.5414 8.88644H92.5541V14.2667H89V0H98V3.26441H92.5541V5.56158H97.4841V8.88644H97.5414Z" fill="white"/>
<path d="M108.508 11.6782L107.959 14.2667H104L107.533 0H112.467L116 14.2667H112.102L111.553 11.6782H108.508ZM110.03 3.49142L109.117 8.90914H111.005L110.03 3.49142Z" fill="white"/>
<path d="M123 14.2667V0H127V14.2667H123Z" fill="white"/>
<path d="M138.686 14.2065H135V0H140.173C144.097 0 145.346 1.74571 145.346 4.57496C145.346 6.32067 144.87 7.58481 143.503 8.36737L146 14.2667H141.778L139.935 9.08973H138.627V14.2065H138.686ZM138.686 6.07989H140.232C141.243 6.07989 141.422 5.23713 141.422 4.57496C141.422 3.9128 141.184 3.07004 140.232 3.07004H138.686V6.07989Z" fill="white"/>
<path d="M157.5 5.38023L159.729 0H164L159.357 8.70508L159.419 14.2667H155.581L155.643 8.70508L151 0H155.271L157.5 5.38023Z" fill="white"/>
</svg>