<svg width="20" height="20" viewBox="0 0 20 20" fill="none" xmlns="http://www.w3.org/2000/svg">
<path d="M9.99613 0C4.48426 0 0 4.48459 0 9.99692C0 15.5127 4.48426 20 9.99613 20C15.5123 20 20 15.5127 20 9.99692C20 4.48459 15.5123 0 9.99613 0ZM4.92328 13.6702C6.08223 13.3174 7.27049 13.1385 8.45488 13.1385C10.4664 13.1385 12.4523 13.6483 14.1986 14.6132C14.3025 14.6698 14.3969 14.857 14.4393 15.09C14.4816 15.3229 14.4648 15.5624 14.3968 15.687C14.3109 15.8469 14.1368 15.9502 13.953 15.9502C13.8619 15.9502 13.7818 15.9298 13.7018 15.8865C12.0986 15.0053 10.2843 14.5395 8.45488 14.5395C7.34964 14.5395 6.26459 14.7031 5.23082 15.0253C5.18046 15.0406 5.12866 15.0484 5.07685 15.0484C4.85049 15.0485 4.65403 14.9043 4.58813 14.6903C4.49915 14.3978 4.68321 13.7487 4.92328 13.6702ZM4.48721 9.98708C5.77895 9.63593 7.1139 9.45784 8.45495 9.45784C10.8658 9.45784 13.2597 10.0412 15.3796 11.1456C15.5282 11.221 15.6377 11.3489 15.6879 11.5056C15.7388 11.6644 15.7234 11.8351 15.644 11.9874C15.4548 12.3576 15.2337 12.6064 15.0936 12.6064C14.9944 12.6064 14.8986 12.5826 14.8031 12.535C12.8347 11.5099 10.6989 10.9902 8.45488 10.9902C7.20669 10.9902 5.9821 11.1543 4.81626 11.4777C4.76203 11.4924 4.70636 11.4998 4.65095 11.4998C4.37049 11.4999 4.12334 11.3104 4.05016 11.0399C3.95646 10.6881 4.17056 10.0732 4.48721 9.98708ZM4.37554 7.58072C4.31633 7.59534 4.2558 7.60269 4.19561 7.60269C3.85666 7.60275 3.56295 7.3737 3.48138 7.04616C3.37915 6.63154 3.63856 6.1499 4.01423 6.05528C5.47528 5.69639 6.96931 5.51443 8.45488 5.51443C11.3307 5.51443 14.0849 6.16098 16.6418 7.43652C16.8194 7.52413 16.9518 7.67534 17.0148 7.86229C17.0777 8.04944 17.0638 8.25088 16.9759 8.42885C16.8562 8.66852 16.5974 8.92656 16.3123 8.92656C16.2023 8.92656 16.0894 8.90079 15.9894 8.85384C13.6406 7.67869 11.1056 7.08282 8.45495 7.08282C7.09272 7.08288 5.72026 7.25036 4.37554 7.58072Z" fill="#222222"/>
</svg>