<?xml version="1.0" encoding="UTF-8"?><!DOCTYPE svg PUBLIC "-//W3C//DTD SVG 1.1//EN" "http://www.w3.org/Graphics/SVG/1.1/DTD/svg11.dtd"><svg xmlns="http://www.w3.org/2000/svg"><symbol id="icon-facebook" viewBox="0 0 12 20">
<path d="M10.9992 0.00416134L8.40571 0C5.49197 0 3.60899 1.9319 3.60899 4.92203V7.19141H1.00131C0.775979 7.19141 0.593506 7.37409 0.593506 7.59943V10.8875C0.593506 11.1128 0.776187 11.2953 1.00131 11.2953H3.60899V19.5922C3.60899 19.8175 3.79146 20 4.01679 20H7.41907C7.6444 20 7.82687 19.8173 7.82687 19.5922V11.2953H10.8759C11.1012 11.2953 11.2837 11.1128 11.2837 10.8875L11.2849 7.59943C11.2849 7.49123 11.2418 7.38762 11.1655 7.31105C11.0891 7.23448 10.9851 7.19141 10.8769 7.19141H7.82687V5.26763C7.82687 4.34298 8.04721 3.87358 9.2517 3.87358L10.9988 3.87295C11.2239 3.87295 11.4064 3.69027 11.4064 3.46514V0.411972C11.4064 0.187052 11.2242 0.00457747 10.9992 0.00416134Z"/>
</symbol><symbol id="icon-instagram" viewBox="0 0 20 20">
<path d="M14.4805 0H5.51913C2.47588 0 0 2.476 0 5.51924V14.4806C0 17.524 2.47588 19.9999 5.51913 19.9999H14.4805C17.524 19.9999 19.9999 17.5239 19.9999 14.4806V5.51924C20 2.476 17.524 0 14.4805 0ZM18.2255 14.4806C18.2255 16.5455 16.5455 18.2254 14.4806 18.2254H5.51913C3.45433 18.2255 1.77449 16.5455 1.77449 14.4806V5.51924C1.77449 3.45445 3.45433 1.77449 5.51913 1.77449H14.4805C16.5454 1.77449 18.2254 3.45445 18.2254 5.51924V14.4806H18.2255Z"/>
<path d="M9.9999 4.84668C7.15824 4.84668 4.84644 7.15848 4.84644 10.0001C4.84644 12.8417 7.15824 15.1534 9.9999 15.1534C12.8416 15.1534 15.1534 12.8417 15.1534 10.0001C15.1534 7.15848 12.8416 4.84668 9.9999 4.84668ZM9.9999 13.3788C8.13681 13.3788 6.62092 11.8631 6.62092 10C6.62092 8.13681 8.13669 6.62105 9.9999 6.62105C11.8631 6.62105 13.3789 8.13681 13.3789 10C13.3789 11.8631 11.863 13.3788 9.9999 13.3788Z"/>
<path d="M15.3696 3.34204C15.0278 3.34204 14.6919 3.48045 14.4505 3.72296C14.2078 3.96429 14.0684 4.30026 14.0684 4.64333C14.0684 4.98533 14.208 5.32118 14.4505 5.5637C14.6918 5.80503 15.0278 5.94462 15.3696 5.94462C15.7127 5.94462 16.0475 5.80503 16.29 5.5637C16.5325 5.32118 16.6709 4.98522 16.6709 4.64333C16.6709 4.30026 16.5325 3.96429 16.29 3.72296C16.0487 3.48045 15.7127 3.34204 15.3696 3.34204Z"/>
</symbol><symbol id="icon-logo" viewBox="0 0 164 15">
<path d="M6.76301 3.31083V14.2667H3.17919V3.31083H0V0H10V3.25063H6.76301V3.31083Z"/>
<path d="M21.5 0C25.9688 0 27 2.78374 27 7.13333C27 11.4829 25.9688 14.2667 21.5 14.2667C17.0313 14.2667 16 11.4829 16 7.13333C16.0573 2.84173 17.0313 0 21.5 0ZM21.5 3.1897C20.0677 3.1897 19.6094 4.11762 19.6094 7.13333C19.6094 10.1491 20.0677 11.077 21.5 11.077C22.9323 11.077 23.3906 10.1491 23.3906 7.13333C23.3906 4.11762 22.9323 3.1897 21.5 3.1897Z"/>
<path d="M40.5 0C44.9687 0 46 2.78374 46 7.13333C46 11.4829 44.9687 14.2667 40.5 14.2667C36.0312 14.2667 35 11.4829 35 7.13333C35.0573 2.84173 36.0312 0 40.5 0ZM40.5 3.1897C39.0677 3.1897 38.6094 4.11762 38.6094 7.13333C38.6094 10.1491 39.0677 11.077 40.5 11.077C41.9323 11.077 42.3906 10.1491 42.3906 7.13333C42.3906 4.11762 41.9323 3.1897 40.5 3.1897Z"/>
<path d="M58.763 3.31083V14.2667H55.1792V3.31083H52V0H62V3.25063H58.763V3.31083Z"/>
<path d="M76.5746 14.2667V8.58418H73.4254V14.2667H70V0H73.4254V5.31977H76.5746V0H80V14.2667H76.5746Z"/>
<path d="M97.5414 8.88644H92.5541V14.2667H89V0H98V3.26441H92.5541V5.56158H97.4841V8.88644H97.5414Z"/>
<path d="M108.508 11.6782L107.959 14.2667H104L107.533 0H112.467L116 14.2667H112.102L111.553 11.6782H108.508ZM110.03 3.49142L109.117 8.90914H111.005L110.03 3.49142Z"/>
<path d="M123 14.2667V0H127V14.2667H123Z"/>
<path d="M138.686 14.2065H135V0H140.173C144.097 0 145.346 1.74571 145.346 4.57496C145.346 6.32067 144.87 7.58481 143.503 8.36737L146 14.2667H141.778L139.935 9.08973H138.627V14.2065H138.686ZM138.686 6.07989H140.232C141.243 6.07989 141.422 5.23713 141.422 4.57496C141.422 3.9128 141.184 3.07004 140.232 3.07004H138.686V6.07989Z"/>
<path d="M157.5 5.38023L159.729 0H164L159.357 8.70508L159.419 14.2667H155.581L155.643 8.70508L151 0H155.271L157.5 5.38023Z"/>
</symbol><symbol id="icon-spotify" viewBox="0 0 20 20">
<path d="M9.99613 0C4.48426 0 0 4.48459 0 9.99692C0 15.5127 4.48426 20 9.99613 20C15.5123 20 20 15.5127 20 9.99692C20 4.48459 15.5123 0 9.99613 0ZM4.92328 13.6702C6.08223 13.3174 7.27049 13.1385 8.45488 13.1385C10.4664 13.1385 12.4523 13.6483 14.1986 14.6132C14.3025 14.6698 14.3969 14.857 14.4393 15.09C14.4816 15.3229 14.4648 15.5624 14.3968 15.687C14.3109 15.8469 14.1368 15.9502 13.953 15.9502C13.8619 15.9502 13.7818 15.9298 13.7018 15.8865C12.0986 15.0053 10.2843 14.5395 8.45488 14.5395C7.34964 14.5395 6.26459 14.7031 5.23082 15.0253C5.18046 15.0406 5.12866 15.0484 5.07685 15.0484C4.85049 15.0485 4.65403 14.9043 4.58813 14.6903C4.49915 14.3978 4.68321 13.7487 4.92328 13.6702ZM4.48721 9.98708C5.77895 9.63593 7.1139 9.45784 8.45495 9.45784C10.8658 9.45784 13.2597 10.0412 15.3796 11.1456C15.5282 11.221 15.6377 11.3489 15.6879 11.5056C15.7388 11.6644 15.7234 11.8351 15.644 11.9874C15.4548 12.3576 15.2337 12.6064 15.0936 12.6064C14.9944 12.6064 14.8986 12.5826 14.8031 12.535C12.8347 11.5099 10.6989 10.9902 8.45488 10.9902C7.20669 10.9902 5.9821 11.1543 4.81626 11.4777C4.76203 11.4924 4.70636 11.4998 4.65095 11.4998C4.37049 11.4999 4.12334 11.3104 4.05016 11.0399C3.95646 10.6881 4.17056 10.0732 4.48721 9.98708ZM4.37554 7.58072C4.31633 7.59534 4.2558 7.60269 4.19561 7.60269C3.85666 7.60275 3.56295 7.3737 3.48138 7.04616C3.37915 6.63154 3.63856 6.1499 4.01423 6.05528C5.47528 5.69639 6.96931 5.51443 8.45488 5.51443C11.3307 5.51443 14.0849 6.16098 16.6418 7.43652C16.8194 7.52413 16.9518 7.67534 17.0148 7.86229C17.0777 8.04944 17.0638 8.25088 16.9759 8.42885C16.8562 8.66852 16.5974 8.92656 16.3123 8.92656C16.2023 8.92656 16.0894 8.90079 15.9894 8.85384C13.6406 7.67869 11.1056 7.08282 8.45495 7.08282C7.09272 7.08288 5.72026 7.25036 4.37554 7.58072Z"/>
</symbol></svg>